<?xml version="1.0" encoding="UTF-8"?>
<svg xmlns="http://www.w3.org/2000/svg" xmlns:xlink="http://www.w3.org/1999/xlink" width="100px" height="85px" viewBox="0 0 100 85" version="1.1">
<g id="surface1">
<path style="fill-rule:nonzero;fill:rgb(80%,0%,0%);fill-opacity:1;stroke-width:4;stroke-linecap:butt;stroke-linejoin:miter;stroke:rgb(80%,0%,0%);stroke-opacity:1;stroke-miterlimit:4;" d="M 199.991016 7.992923 C 97.474922 8.559926 14.71875 91.964338 14.994727 194.500551 C 15.270703 297.018474 98.468437 380.002206 201.00293 380.002206 C 303.537422 380.002206 386.716758 297.018474 386.992734 194.500551 C 387.268711 91.964338 304.530937 8.559926 201.996445 7.992923 Z M 235.996758 375.996599 C 149.947266 357.852482 88.367695 281.947151 88.367695 194.00671 C 88.367695 106.066268 149.947266 30.142647 235.996758 11.998529 " transform="matrix(0.212314,0,0,0.213568,0,0)"/>
<path style="fill:none;stroke-width:4;stroke-linecap:butt;stroke-linejoin:miter;stroke:rgb(80%,0%,0%);stroke-opacity:1;stroke-miterlimit:4;" d="M 272.0025 7.992923 C 169.468008 8.559926 86.730234 91.964338 87.006211 194.500551 C 87.282188 297.018474 170.461523 380.002206 272.996016 380.002206 C 375.530508 380.002206 458.728242 297.018474 459.004219 194.500551 C 459.280195 91.964338 376.524023 8.559926 274.00793 7.992923 Z M 272.0025 7.992923 " transform="matrix(0.212314,0,0,0.213568,0,0)"/>
</g>
</svg>
