<?xml version="1.0" standalone="no"?>
<!DOCTYPE svg PUBLIC "-//W3C//DTD SVG 20010904//EN"
 "http://www.w3.org/TR/2001/REC-SVG-20010904/DTD/svg10.dtd">
<svg version="1.0" xmlns="http://www.w3.org/2000/svg"
 width="271.000000pt" height="271.000000pt" viewBox="0 0 271.000000 271.000000"
 preserveAspectRatio="xMidYMid meet">

<g transform="translate(0.000000,271.000000) scale(0.100000,-0.100000)"
fill="#000000" stroke="none">
<path d="M742 1967 l-602 -602 603 -603 602 -602 603 603 602 602 -603 603
-602 602 -603 -603z m598 -7 l0 -590 -592 0 -593 0 590 590 c324 325 591 590
592 590 2 0 3 -265 3 -590z m548 -388 l-142 -3 -98 98 -98 98 0 145 0 145 240
-240 240 -240 -142 -3z m642 -215 c0 -1 -265 -268 -590 -592 l-590 -590 0 593
0 592 590 0 c325 0 590 -1 590 -3z m-1487 -295 l98 -98 -3 -142 -3 -142 -240
240 -240 240 145 0 145 0 98 -98z"/>
<path d="M890 1815 l-255 -255 155 0 155 0 103 103 103 103 -3 152 -3 152
-255 -255z"/>
<path d="M1642 1067 l-103 -103 3 -152 3 -152 255 255 255 255 -155 0 -155 0
-103 -103z"/>
</g>
</svg>
