<?xml version="1.0" standalone="no"?>
<!DOCTYPE svg PUBLIC "-//W3C//DTD SVG 20010904//EN"
 "http://www.w3.org/TR/2001/REC-SVG-20010904/DTD/svg10.dtd">
<svg version="1.0" xmlns="http://www.w3.org/2000/svg"
 width="866.000000pt" height="650.000000pt" viewBox="0 0 866.000000 650.000000"
 preserveAspectRatio="xMidYMid meet">

<g transform="translate(0.000000,650.000000) scale(0.100000,-0.100000)"
fill="#000000" stroke="none">
<path d="M4075 5605 c-290 -47 -544 -150 -765 -309 -30 -22 -67 -51 -82 -65
-27 -24 -28 -24 -67 -7 -75 35 -163 -3 -262 -113 -58 -63 -109 -164 -109 -214
0 -19 10 -49 23 -68 l23 -34 -57 -110 c-59 -113 -114 -251 -145 -363 -19 -71
-15 -80 39 -83 15 -1 32 -2 39 -3 6 -1 15 10 19 24 54 182 139 385 194 463 14
21 15 21 16 2 0 -19 1 -19 9 1 8 20 4 48 -15 112 -6 17 -3 22 12 22 10 0 25
-6 32 -12 11 -11 13 -9 9 9 -4 15 5 31 33 59 l38 37 63 -27 63 -26 -48 42 -47
43 20 32 c19 28 25 31 58 26 l37 -5 -32 20 c-21 14 -30 27 -27 39 4 16 16 18
92 16 48 0 77 1 65 4 -13 2 -23 8 -23 12 0 5 24 26 53 48 212 159 463 265 747
315 94 16 402 16 490 0 122 -23 201 -45 193 -52 -4 -5 -30 -15 -58 -23 -48
-15 -49 -16 -15 -16 57 -1 111 16 157 48 l43 30 16 -24 c15 -23 15 -27 1 -49
l-16 -24 29 15 c28 14 32 13 92 -28 35 -23 64 -43 66 -44 2 -2 -3 -29 -11 -61
-8 -33 -17 -75 -20 -94 -7 -39 -9 -43 40 68 13 29 30 55 37 58 7 3 34 -4 59
-15 46 -20 47 -21 48 -68 l1 -48 16 48 c11 33 20 46 30 42 7 -3 20 -5 28 -5 9
0 14 -11 14 -34 0 -42 34 -154 54 -181 14 -17 14 -14 0 27 -9 26 -14 53 -12
59 5 16 183 -163 250 -251 74 -99 227 -400 269 -531 18 -57 34 -106 36 -108 1
-2 27 0 58 4 l57 7 -7 36 c-12 71 -86 277 -132 371 -94 191 -251 398 -404 530
-41 36 -80 70 -88 77 -12 11 -12 18 -1 43 12 29 10 34 -28 84 -60 80 -180 154
-316 196 -97 30 -132 28 -167 -10 l-28 -31 -53 16 c-152 43 -253 57 -448 61
-140 3 -220 0 -285 -10z m1015 -191 c52 -26 123 -58 158 -70 72 -25 68 -40 -5
-24 -92 21 -224 89 -273 142 -27 30 -25 46 3 21 12 -12 65 -43 117 -69z
m-2006 -356 c-28 -56 -76 -110 -123 -140 -25 -15 -49 -28 -54 -28 -5 0 28 39
73 87 45 48 89 100 98 116 23 39 29 9 6 -35z"/>
<path d="M4424 5365 c-21 -32 -7 -69 30 -87 58 -26 106 60 54 96 -33 23 -65
20 -84 -9z"/>
<path d="M4250 5370 c0 -5 5 -10 10 -10 6 0 10 5 10 10 0 6 -4 10 -10 10 -5 0
-10 -4 -10 -10z"/>
<path d="M3905 5340 c-4 -6 -3 -16 3 -22 6 -6 12 -6 17 2 4 6 3 16 -3 22 -6 6
-12 6 -17 -2z"/>
<path d="M3596 5265 c-11 -28 -7 -44 14 -55 31 -16 62 4 58 38 -2 22 -9 28
-34 30 -22 2 -33 -2 -38 -13z"/>
<path d="M4237 5105 c-166 -137 -272 -279 -328 -440 -41 -121 -36 -320 17
-584 14 -68 23 -124 22 -125 -2 -1 -24 -11 -51 -24 -107 -50 -182 -157 -213
-302 -31 -146 -2 -395 71 -600 15 -41 29 -83 32 -92 8 -26 23 -11 23 21 0 59
51 229 95 316 44 89 83 138 160 203 26 23 35 36 26 41 -6 4 -9 15 -5 24 3 9 2
17 -3 17 -6 0 -20 35 -32 78 -12 42 -28 100 -36 127 -72 247 -127 626 -111
765 14 114 56 220 131 325 56 78 249 255 279 255 5 0 0 -10 -11 -22 -65 -71
-79 -134 -38 -166 14 -11 25 -23 25 -26 0 -3 -27 -6 -59 -6 -38 0 -61 -4 -63
-12 -3 -7 -24 -18 -49 -25 -39 -10 -31 -11 76 -7 116 4 119 4 85 -12 -83 -38
-173 -135 -163 -175 4 -15 3 -20 -5 -15 -8 5 -12 -2 -12 -18 0 -14 5 -26 10
-26 6 0 10 -7 10 -16 0 -12 -5 -11 -20 7 l-21 24 14 -35 c8 -19 12 -42 9 -50
-2 -8 8 -3 22 13 39 40 103 70 134 62 30 -7 23 -16 -39 -49 -117 -63 -151
-211 -73 -325 13 -19 21 -38 18 -43 -3 -5 0 -7 8 -6 8 2 12 -4 10 -16 -2 -12
1 -16 9 -10 7 4 10 3 5 -4 -3 -6 12 -17 39 -28 54 -20 154 -15 203 10 111 57
167 199 128 321 -3 11 0 7 8 -10 46 -93 -3 -239 -101 -304 -92 -61 -200 -62
-302 -1 -29 16 -54 30 -57 30 -3 0 -3 -121 -1 -270 1 -148 1 -270 0 -270 -2 0
-8 10 -13 23 -8 19 -9 17 -8 -14 1 -26 6 -35 15 -32 7 3 13 -2 13 -10 0 -9 3
-24 6 -34 3 -11 -1 -8 -11 7 -12 18 -15 19 -10 5 12 -37 17 -111 7 -96 -7 10
-9 5 -9 -17 1 -17 4 -29 8 -27 51 32 371 28 403 -5 8 -8 4 -9 -14 -2 -46 17
-174 23 -274 12 -110 -11 -122 -15 -105 -36 9 -11 13 -11 26 1 16 17 61 19 83
5 11 -7 12 -10 2 -10 -9 0 -7 -9 7 -29 19 -27 26 -29 118 -37 l98 -9 -117 -5
c-72 -3 -122 -10 -129 -17 -19 -19 31 -33 119 -33 99 0 125 -7 119 -31 -5 -19
7 -26 17 -10 11 17 -7 43 -38 57 l-31 15 35 -7 c19 -4 38 -11 41 -16 11 -17
39 4 39 29 0 30 -42 76 -95 103 l-40 21 45 -7 c60 -8 80 -20 80 -47 0 -16 7
-9 25 25 14 26 25 54 25 62 0 30 19 25 68 -19 64 -58 116 -136 156 -236 18
-44 36 -76 40 -72 4 5 5 -4 1 -20 -4 -15 -3 -27 1 -27 5 0 10 18 12 41 1 23
13 57 27 77 14 20 25 48 25 61 0 13 12 40 26 59 26 33 27 38 21 131 -10 173
-85 340 -194 430 -43 35 -31 40 27 11 88 -45 147 -136 175 -272 28 -132 11
-400 -33 -528 -7 -18 -12 -40 -11 -49 1 -29 37 87 60 192 29 136 32 335 5 422
-40 133 -110 223 -207 267 -27 13 -49 30 -49 38 0 8 12 71 26 140 31 154 44
419 25 508 -15 65 -69 186 -114 252 -73 106 -273 290 -316 290 -9 0 -47 -25
-84 -55z m183 -558 c24 -12 52 -35 63 -49 l20 -26 -63 -59 c-35 -32 -81 -80
-102 -106 -21 -27 -38 -43 -38 -35 1 23 36 92 73 141 20 26 33 47 28 47 -18 0
-127 -128 -165 -193 -21 -37 -43 -67 -47 -67 -28 0 21 119 79 189 l37 46 -32
-23 c-39 -28 -61 -55 -93 -116 -14 -25 -28 -46 -31 -46 -8 0 -25 43 -33 82
-10 44 12 121 46 163 62 74 173 97 258 52z m138 -62 c-3 -3 -9 2 -12 12 -6 14
-5 15 5 6 7 -7 10 -15 7 -18z m-141 -187 c-31 -42 -67 -112 -67 -133 0 -15
-49 -22 -63 -9 -15 16 47 103 112 157 42 35 51 28 18 -15z m93 -62 c0 -2 -8
-10 -17 -17 -16 -13 -17 -12 -4 4 13 16 21 21 21 13z m-578 -333 c-34 -24
-113 -123 -106 -134 3 -5 1 -9 -5 -9 -6 0 -18 -11 -27 -25 -15 -23 -17 -64
-15 -376 2 -246 -1 -349 -8 -344 -6 3 -11 13 -11 22 0 8 -9 45 -20 81 -64 217
-65 499 -3 628 40 83 145 175 198 173 19 0 18 -1 -3 -16z"/>
<path d="M3763 5127 c-47 -18 -110 -68 -127 -102 -8 -16 -17 -59 -20 -95 l-4
-65 14 36 c13 30 19 35 39 31 17 -3 25 -11 26 -26 0 -19 2 -18 10 5 9 24 45
49 71 49 6 0 20 -7 30 -17 19 -17 24 -8 8 17 -11 18 15 50 42 50 11 0 17 4 14
9 -3 5 1 25 9 45 14 32 20 36 53 37 l37 1 -42 8 c-23 5 -51 14 -62 19 -25 14
-57 13 -98 -2z m87 -51 c0 -19 -58 -74 -102 -97 -39 -20 -88 -25 -88 -10 0 21
54 71 102 95 58 29 88 33 88 12z"/>
<path d="M4722 5008 c-17 -17 -15 -43 8 -69 16 -20 19 -21 20 -6 0 39 65 41
139 3 l32 -17 -17 27 c-20 30 -105 74 -144 74 -15 0 -31 -5 -38 -12z"/>
<path d="M5225 4914 c-14 -15 -15 -19 -2 -31 12 -12 19 -13 36 -4 26 14 27 27
2 41 -15 7 -24 6 -36 -6z"/>
<path d="M5500 4773 c0 -27 42 -73 70 -75 34 -4 37 23 5 61 -30 35 -75 43 -75
14z"/>
<path d="M3126 4754 c-21 -21 -20 -37 4 -59 17 -15 24 -16 45 -7 34 16 34 55
0 70 -32 15 -31 15 -49 -4z"/>
<path d="M3601 4661 c-22 -21 -31 -38 -31 -61 l0 -33 22 29 c33 43 39 45 90
40 41 -4 46 -3 41 12 -17 49 -76 56 -122 13z"/>
<path d="M5115 4671 l-80 -6 53 -18 c47 -17 52 -22 52 -48 0 -24 -4 -29 -24
-29 -40 0 -39 -18 1 -25 31 -5 41 -13 57 -44 17 -37 17 -40 0 -66 l-18 -28 31
16 c29 15 31 15 52 -7 11 -12 21 -34 21 -49 0 -30 7 -34 24 -13 8 11 20 13 45
8 29 -6 36 -14 46 -47 l12 -40 7 30 c4 17 13 53 21 81 12 41 13 58 3 85 -16
47 -51 101 -90 139 -33 32 -104 71 -123 68 -5 -1 -46 -4 -90 -7z m204 -126
c67 -61 82 -137 28 -143 -33 -4 -78 26 -106 72 -20 32 -28 86 -14 99 16 17 56
4 92 -28z"/>
<path d="M3314 4556 c-11 -28 1 -51 25 -51 28 0 47 25 38 49 -8 20 -56 21 -63
2z"/>
<path d="M5622 4488 c-33 -33 16 -91 57 -68 39 20 21 80 -24 80 -12 0 -26 -5
-33 -12z"/>
<path d="M3046 4465 c-50 -46 -62 -132 -25 -179 25 -32 47 -33 84 -4 54 43 72
134 34 182 -26 33 -58 33 -93 1z"/>
<path d="M3122 4270 c-38 -35 -64 -37 -112 -10 l-35 21 33 -31 c18 -16 43 -30
56 -30 26 0 71 31 86 61 14 25 11 24 -28 -11z"/>
<path d="M1668 4253 c7 -3 16 -2 19 1 4 3 -2 6 -13 5 -11 0 -14 -3 -6 -6z"/>
<path d="M6925 4253 c-43 -6 -52 -20 -10 -15 19 2 38 8 41 13 3 5 4 8 2 8 -2
-1 -16 -4 -33 -6z"/>
<path d="M1725 4241 c17 -4 196 -32 399 -62 203 -30 363 -55 354 -57 -8 -2
-125 11 -259 28 -134 17 -300 38 -369 46 -69 7 -136 16 -150 19 -17 4 -21 3
-11 -3 11 -8 11 -10 0 -15 -8 -3 2 -4 21 -1 31 4 32 3 11 -6 -13 -6 -34 -11
-47 -12 -12 -1 -20 -6 -17 -11 3 -5 21 -7 41 -4 19 4 31 3 28 -1 -4 -3 30 -12
76 -19 46 -6 175 -26 288 -42 113 -17 311 -46 440 -66 129 -19 439 -64 688
-101 l452 -66 23 28 c12 16 30 37 39 46 16 16 15 18 -15 23 -18 3 -363 52
-767 110 -404 58 -842 121 -973 140 -224 33 -325 43 -252 26z m823 -128 c-10
-2 -26 -2 -35 0 -10 3 -2 5 17 5 19 0 27 -2 18 -5z"/>
<path d="M6655 4215 c-82 -13 -420 -62 -750 -109 -795 -115 -998 -145 -1001
-148 -1 -2 16 -23 38 -47 l40 -43 282 41 c1404 207 1667 247 1668 256 1 11 65
44 85 45 6 0 14 4 17 8 2 4 -21 4 -52 0 -135 -18 -712 -88 -767 -93 -103 -9
-47 3 140 30 274 39 510 76 514 81 9 8 -68 1 -214 -21z m-512 -102 c-7 -2 -21
-2 -30 0 -10 3 -4 5 12 5 17 0 24 -2 18 -5z"/>
<path d="M7028 4173 c7 -3 16 -2 19 1 4 3 -2 6 -13 5 -11 0 -14 -3 -6 -6z"/>
<path d="M1575 4120 c3 -5 16 -10 28 -10 18 0 19 2 7 10 -20 13 -43 13 -35 0z"/>
<path d="M1645 4111 c3 -6 2 -11 -4 -11 -6 0 -8 -7 -5 -15 4 -10 0 -15 -11
-15 -9 0 -13 -5 -10 -10 3 -6 17 -7 30 -4 15 4 26 0 32 -9 23 -41 329 -69 525
-47 139 15 161 25 77 34 -35 4 -174 23 -309 42 -135 18 -265 36 -289 40 -29 4
-41 2 -36 -5z"/>
<path d="M6885 4105 c-44 -6 -191 -27 -328 -45 -136 -19 -244 -37 -240 -41 13
-12 196 -29 310 -29 115 0 288 23 310 42 7 6 21 12 31 13 33 3 72 17 72 26 0
5 -4 9 -10 9 -18 0 -6 25 15 32 34 11 -75 6 -160 -7z"/>
<path d="M1520 4010 c0 -5 5 -10 11 -10 5 0 7 5 4 10 -3 6 -8 10 -11 10 -2 0
-4 -4 -4 -10z"/>
<path d="M7160 4000 c-9 -6 -10 -10 -3 -10 6 0 15 5 18 10 8 12 4 12 -15 0z"/>
<path d="M7090 3990 c-8 -5 -15 -15 -15 -22 0 -7 -6 -14 -12 -14 -7 -1 -17 -2
-23 -3 -5 0 -17 -13 -25 -28 -9 -16 -14 -21 -11 -12 4 14 -2 13 -34 -5 -21
-11 -36 -25 -33 -30 4 -5 1 -6 -4 -3 -6 4 -35 -4 -65 -17 -192 -85 -573 -130
-903 -107 -90 6 -172 14 -182 17 -10 3 -6 -2 8 -10 15 -9 65 -26 110 -40 46
-13 77 -27 69 -29 -16 -6 -856 -127 -877 -127 -9 0 -13 -17 -13 -50 0 -41 3
-50 18 -50 16 0 786 112 1407 205 132 20 262 39 289 42 l48 6 -12 -24 c-20
-37 -168 -179 -234 -224 -57 -39 -57 -40 -31 -48 14 -5 24 -15 22 -21 -3 -7
-15 -62 -27 -122 -12 -60 -23 -110 -25 -112 -2 -2 -14 8 -28 22 -20 20 -36 26
-67 26 -69 0 -124 -40 -155 -112 -38 -93 -8 -137 107 -157 138 -25 188 -77
188 -197 0 -171 -93 -294 -263 -349 -77 -25 -190 -33 -245 -19 -22 6 -23 10
-17 54 6 44 5 49 -16 55 -20 7 -20 8 -6 17 10 5 22 6 27 3 6 -4 10 8 11 27 0
18 4 41 8 51 6 18 8 18 21 2 18 -21 64 -45 88 -45 15 0 18 5 14 25 -5 30 7
135 16 135 4 0 33 -24 65 -54 58 -53 58 -53 68 -29 14 36 11 86 -6 110 -17 24
-55 38 -130 48 -133 18 -169 61 -169 205 0 96 21 164 80 251 19 28 34 53 34
55 0 3 -16 2 -35 -2 -28 -5 -40 -1 -66 20 -49 42 -54 36 -57 -71 -2 -54 -4
-99 -5 -100 -2 -1 -50 -14 -107 -28 -58 -15 -108 -30 -112 -34 -8 -7 -30 -193
-23 -199 2 -2 45 5 95 17 50 12 97 21 105 21 10 0 11 -16 7 -67 -8 -108 -6
-106 -121 -133 -115 -27 -106 -16 -116 -147 -5 -65 -4 -83 7 -83 7 0 55 11
107 25 52 13 98 22 101 20 8 -5 -9 -178 -18 -186 -4 -3 -92 -27 -197 -53 -104
-26 -203 -52 -218 -58 l-28 -11 33 -30 c103 -94 184 -157 202 -157 42 1 449
109 457 122 5 7 9 32 9 56 0 23 3 42 6 42 3 0 23 -13 44 -30 51 -40 81 -50
155 -50 131 0 244 40 324 115 49 46 101 132 101 167 0 10 4 18 9 18 5 0 48
-32 96 -72 l88 -72 83 18 c46 9 103 23 126 29 l43 13 32 379 c17 209 32 387
32 397 1 12 24 22 96 39 l95 23 0 102 0 101 -107 88 c-60 49 -113 93 -120 97
-11 8 -387 -81 -378 -90 2 -2 81 15 175 38 95 22 174 39 177 36 3 -3 8 -43 10
-89 l6 -85 -96 -22 -96 -21 -5 -42 c-3 -23 -17 -188 -31 -367 -14 -179 -28
-339 -31 -356 -4 -30 -8 -33 -77 -50 -39 -9 -90 -23 -111 -31 l-39 -13 6 112
c3 62 3 103 -1 90 -7 -21 -13 -18 -107 59 -163 132 -157 127 -150 149 7 22 59
64 92 74 16 5 35 -4 78 -39 31 -26 58 -45 60 -43 2 2 13 46 24 97 12 52 23 96
26 99 3 3 6 -19 6 -49 1 -30 7 11 15 91 7 79 11 146 9 148 -2 3 -11 2 -19 -1
-10 -4 -17 -27 -22 -67 -4 -33 -11 -63 -16 -66 -5 -3 -3 -13 4 -22 12 -15 11
-16 -4 -3 -10 7 -15 18 -12 23 4 6 -1 8 -12 4 -13 -3 -32 7 -61 33 -24 22 -48
41 -54 43 -7 2 -8 19 -1 55 6 36 6 56 -2 64 -8 8 -8 13 2 16 6 3 12 14 12 24
0 14 -4 18 -12 13 -9 -5 -9 -3 1 9 7 9 17 14 22 11 5 -3 6 1 3 9 -3 8 6 21 20
30 64 43 241 250 229 271 -3 6 -3 8 2 4 10 -10 34 21 35 45 0 9 6 16 13 15 7
-2 11 5 10 17 -1 11 0 14 3 7 5 -10 9 -10 20 -1 18 15 18 6 -2 -34 l-15 -32
20 25 c11 14 21 33 21 43 0 9 3 16 8 16 19 -3 33 2 27 11 -3 6 1 10 9 10 8 0
17 4 20 9 4 5 -3 7 -14 4 -23 -6 -26 6 -7 27 10 12 9 12 -6 0 -10 -7 -16 -19
-13 -26 3 -7 1 -16 -3 -19 -5 -2 -11 5 -15 17 -3 15 0 26 10 31 8 4 12 12 9
18 -3 5 1 6 9 3 10 -4 20 5 31 25 17 34 17 35 -5 21z m-95 -99 c7 -12 -12 -24
-25 -16 -11 7 -4 25 10 25 5 0 11 -4 15 -9z"/>
<path d="M1539 3969 c-12 -7 -12 -9 0 -9 8 0 11 -3 8 -7 -9 -8 32 -53 49 -53
8 0 11 -9 9 -21 -2 -12 2 -31 10 -43 8 -11 15 -15 15 -8 0 26 47 -11 74 -59
40 -71 114 -160 220 -263 50 -49 82 -84 71 -78 -45 24 -210 178 -267 250 -70
89 -79 99 -54 57 79 -127 219 -275 340 -357 24 -17 53 -54 81 -103 164 -287
435 -488 760 -563 106 -25 339 -46 410 -37 37 5 46 3 35 -5 -17 -12 -17 -12
100 15 35 8 66 13 67 11 2 -2 -55 -100 -127 -219 -71 -118 -130 -221 -130
-229 0 -7 29 -125 65 -260 36 -136 65 -251 65 -255 0 -11 -233 -63 -241 -54
-4 3 -24 78 -44 166 -20 88 -38 161 -40 163 -1 2 -13 -14 -25 -35 -20 -34 -46
-167 -62 -317 -3 -28 -7 -30 -98 -52 -130 -32 -143 -31 -136 4 12 57 115 916
111 921 -3 2 -5 -5 -5 -17 0 -28 -4 -27 -44 3 -26 20 -37 23 -62 16 -24 -8
-25 -9 -6 -10 16 -1 22 -7 22 -23 0 -32 -18 -149 -23 -154 -2 -3 -51 -16 -108
-30 -57 -14 -107 -28 -112 -33 -10 -10 -32 -179 -24 -188 6 -5 133 17 191 34
17 5 18 1 12 -63 -12 -115 -9 -110 -90 -128 -39 -9 -88 -21 -107 -26 l-37 -10
-12 -96 c-6 -53 -10 -98 -7 -100 2 -2 52 7 111 20 58 13 108 20 110 17 4 -7
-19 -180 -25 -184 -2 -2 -100 -27 -218 -55 -118 -28 -218 -57 -222 -63 -17
-27 -13 39 18 286 34 280 70 557 79 618 4 28 2 37 -9 37 -8 0 -20 7 -27 15 -7
8 -24 14 -39 14 -17 -1 -20 -3 -8 -6 14 -4 17 -15 16 -66 -2 -119 -2 -118
-104 -140 -49 -10 -91 -20 -92 -21 -1 -1 -22 -168 -47 -371 -25 -204 -48 -380
-51 -392 -6 -24 -54 -41 -177 -65 -38 -7 -68 -16 -68 -20 0 -5 4 -8 8 -8 5 0
26 -16 48 -35 21 -20 69 -61 107 -92 l67 -55 123 27 c67 15 123 28 124 29 1 1
8 47 14 102 7 54 15 103 20 108 4 5 42 -20 84 -55 42 -35 86 -72 98 -82 22
-17 30 -16 257 35 l234 53 11 45 c6 25 13 41 16 35 2 -5 16 -20 30 -33 l27
-23 125 27 126 27 6 74 c4 40 10 73 13 73 2 0 28 -19 56 -43 28 -23 58 -48 68
-55 13 -11 36 -8 130 13 162 37 149 30 142 78 l-7 42 35 -32 c19 -18 39 -33
46 -33 34 0 216 45 227 57 8 7 17 48 21 93 3 44 11 80 16 80 5 0 44 -29 86
-65 42 -36 85 -65 94 -65 18 0 178 37 184 42 1 2 10 57 18 122 9 66 17 121 19
123 2 1 37 -26 78 -62 41 -35 89 -72 107 -80 124 -61 325 -2 460 135 l68 69
63 -51 63 -51 116 27 c64 15 120 32 124 39 4 7 8 26 8 42 1 17 7 101 14 189
14 160 19 175 57 176 13 0 17 15 22 73 3 39 17 225 32 412 14 187 28 345 30
351 2 6 32 17 67 25 l63 13 -165 13 c-91 7 -169 11 -174 10 -11 -4 98 -44 142
-53 18 -4 32 -10 32 -14 0 -4 -10 -5 -23 -3 -13 3 -39 0 -58 -6 l-34 -11 38 6
38 5 -6 -53 c-3 -29 -8 -71 -11 -94 l-5 -40 -115 -29 c-63 -15 -117 -32 -120
-37 -7 -11 -24 -191 -19 -197 2 -2 52 8 111 23 59 15 109 25 111 22 2 -2 1
-42 -4 -87 l-8 -84 -115 -30 c-78 -20 -115 -35 -117 -45 -1 -8 -9 -98 -18
-199 -8 -102 -16 -186 -18 -187 -6 -7 -209 -55 -213 -51 -5 5 29 490 51 709 3
34 -1 40 -56 85 -53 43 -58 51 -54 78 4 23 2 26 -5 13 -10 -16 -14 -15 -57 4
-27 12 -74 22 -112 24 l-66 3 66 -9 c106 -13 157 -51 201 -145 21 -45 23 -64
22 -190 -1 -168 -21 -253 -89 -392 -76 -155 -198 -258 -351 -297 -118 -30
-201 -17 -261 42 -21 20 -39 42 -40 47 -2 6 -12 35 -23 65 -41 116 -15 366 55
518 42 90 40 144 -6 188 l-29 28 -62 -17 c-35 -9 -46 -14 -25 -11 21 3 45 8
53 11 9 3 14 -1 14 -12 0 -32 -110 -900 -118 -929 -7 -28 -13 -31 -87 -48 -44
-9 -83 -18 -86 -18 -3 0 -39 87 -79 193 -39 105 -75 195 -79 200 -4 4 -19 -93
-34 -215 -15 -122 -31 -225 -35 -229 -11 -10 -203 -52 -209 -45 -3 3 2 66 11
141 11 91 14 140 7 153 -5 10 -6 24 -2 31 7 10 9 11 13 1 2 -7 11 47 21 121 9
74 26 213 38 309 15 121 19 175 11 178 -6 2 -4 10 7 21 20 20 189 57 201 44 4
-4 38 -95 75 -201 38 -106 70 -191 72 -189 7 8 44 319 40 335 -3 9 -5 0 -6
-20 0 -21 -4 -38 -7 -38 -6 0 -50 35 -111 86 -67 58 -55 55 -171 44 -261 -25
-665 5 -851 62 -93 28 -231 99 -312 158 -93 69 -243 230 -215 230 5 0 982
-144 1199 -176 97 -15 180 -24 183 -21 3 3 0 27 -8 53 l-14 49 -249 36 c-138
20 -243 39 -235 42 8 3 51 17 95 32 100 34 114 45 38 32 -32 -6 -161 -11 -288
-11 -431 0 -654 45 -878 177 -89 53 -312 268 -284 275 10 2 78 -6 150 -17 129
-20 410 -62 1092 -162 187 -27 367 -54 400 -59 105 -17 105 -17 105 39 l0 48
-42 6 c-24 4 -164 24 -313 46 -148 22 -319 47 -380 56 -172 24 -171 24 -85 50
81 24 165 60 119 51 -68 -14 -316 -26 -419 -21 -345 18 -552 55 -691 126 -25
12 -39 15 -50 7 -11 -8 -9 -8 6 -3 16 5 18 4 8 -6 -10 -9 -16 -10 -24 -2 -8 8
-8 13 0 18 7 4 -12 22 -46 44 -72 46 -86 52 -104 40z m56 -30 c-4 -6 -1 -9 6
-8 21 3 50 -12 43 -22 -3 -5 -13 -5 -24 1 -11 6 -23 10 -27 9 -20 -3 -24 2
-13 16 14 17 24 20 15 4z m52 -55 c-3 -3 -12 -4 -19 -1 -8 3 -5 6 6 6 11 1 17
-2 13 -5z m-15 -36 c-7 -7 -12 -8 -12 -2 0 14 12 26 19 19 2 -3 -1 -11 -7 -17z
m510 -572 c49 -81 129 -176 219 -260 46 -44 77 -76 69 -71 -40 23 -173 141
-222 197 -54 62 -138 183 -138 200 0 19 43 -21 72 -66z m608 -1186 c0 -5 -2
-10 -4 -10 -3 0 -8 5 -11 10 -3 6 -1 10 4 10 6 0 11 -4 11 -10z"/>
<path d="M7165 3959 c-4 -6 -5 -12 -2 -15 2 -3 7 2 10 11 7 17 1 20 -8 4z"/>
<path d="M1521 3913 c31 -27 65 -40 53 -22 -3 5 -9 7 -13 4 -5 -2 -19 7 -31
20 -13 14 -28 25 -33 25 -4 0 6 -12 24 -27z"/>
<path d="M4061 3814 c0 -11 3 -14 6 -6 3 7 2 16 -1 19 -3 4 -6 -2 -5 -13z"/>
<path d="M6946 3716 c-20 -29 -76 -93 -124 -141 -60 -60 -80 -85 -63 -80 26 8
108 91 151 154 14 20 31 42 38 49 14 15 45 72 39 72 -2 0 -20 -24 -41 -54z"/>
<path d="M1924 3641 c12 -19 117 -67 191 -87 56 -15 102 -19 235 -18 91 1 185
5 210 11 40 8 13 13 -265 52 -170 24 -325 46 -344 49 -25 4 -32 2 -27 -7z"/>
<path d="M6365 3602 c-283 -40 -315 -47 -280 -56 22 -5 117 -10 210 -10 134 0
184 3 233 17 72 20 157 57 187 81 20 15 20 15 -5 15 -14 -1 -169 -22 -345 -47z"/>
<path d="M6468 3433 c12 -2 32 -2 45 0 12 2 2 4 -23 4 -25 0 -35 -2 -22 -4z"/>
<path d="M5968 3313 c7 -3 16 -2 19 1 4 3 -2 6 -13 5 -11 0 -14 -3 -6 -6z"/>
<path d="M5928 3303 c7 -3 16 -2 19 1 4 3 -2 6 -13 5 -11 0 -14 -3 -6 -6z"/>
<path d="M5888 3293 c7 -3 16 -2 19 1 4 3 -2 6 -13 5 -11 0 -14 -3 -6 -6z"/>
<path d="M5848 3283 c7 -3 16 -2 19 1 4 3 -2 6 -13 5 -11 0 -14 -3 -6 -6z"/>
<path d="M5808 3273 c7 -3 16 -2 19 1 4 3 -2 6 -13 5 -11 0 -14 -3 -6 -6z"/>
<path d="M4170 3241 c0 -5 7 -11 14 -14 10 -4 13 -1 9 9 -6 15 -23 19 -23 5z"/>
<path d="M4408 3213 c7 -3 16 -2 19 1 4 3 -2 6 -13 5 -11 0 -14 -3 -6 -6z"/>
<path d="M4308 3203 c6 -2 18 -2 25 0 6 3 1 5 -13 5 -14 0 -19 -2 -12 -5z"/>
<path d="M5378 3173 c7 -3 16 -2 19 1 4 3 -2 6 -13 5 -11 0 -14 -3 -6 -6z"/>
<path d="M5178 3146 c-120 -18 -172 -35 -157 -50 4 -4 139 24 284 58 87 20 30
17 -127 -8z"/>
<path d="M2382 3136 c20 -14 72 -38 115 -53 72 -25 89 -27 233 -27 85 0 173 5
194 10 34 8 2 15 -240 48 -153 21 -292 40 -309 43 l-30 5 37 -26z"/>
<path d="M4291 3143 c-8 -3 -25 -17 -38 -31 -13 -14 -23 -22 -23 -18 0 4 -7 1
-15 -8 -8 -8 -15 -16 -15 -18 0 -9 50 -7 55 2 8 13 65 13 65 1 0 -5 27 -9 59
-8 33 1 55 5 49 8 -5 3 -9 9 -9 13 3 21 -2 28 -31 46 -32 19 -68 24 -97 13z
m124 -52 c3 -5 1 -12 -5 -16 -5 -3 -10 1 -10 9 0 18 6 21 15 7z"/>
<path d="M4598 3003 c6 -2 18 -2 25 0 6 3 1 5 -13 5 -14 0 -19 -2 -12 -5z"/>
<path d="M6813 2940 c0 -25 2 -35 4 -22 2 12 2 32 0 45 -2 12 -4 2 -4 -23z"/>
<path d="M6803 2815 c0 -27 2 -38 4 -22 2 15 2 37 0 50 -2 12 -4 0 -4 -28z"/>
<path d="M3973 2829 c-21 -6 -33 -16 -33 -27 0 -13 2 -14 9 -4 4 7 30 19 57
27 29 8 39 13 24 13 -14 0 -40 -4 -57 -9z"/>
<path d="M4554 2786 c-43 -19 -100 -90 -125 -155 -54 -142 -64 -354 -20 -424
26 -43 56 -53 105 -37 77 25 146 166 173 349 19 132 8 208 -37 253 -31 31 -50
34 -96 14z"/>
<path d="M3932 2750 c0 -19 2 -27 5 -17 2 9 2 25 0 35 -3 9 -5 1 -5 -18z"/>
<path d="M3248 2653 c7 -3 16 -2 19 1 4 3 -2 6 -13 5 -11 0 -14 -3 -6 -6z"/>
<path d="M3037 2590 c3 -11 -3 -81 -12 -155 -10 -75 -16 -138 -13 -140 4 -5
68 90 68 100 0 3 15 28 34 57 51 81 59 99 43 92 -8 -3 -33 11 -56 31 -49 40
-72 45 -64 15z"/>
<path d="M3180 2580 c-6 -11 -8 -20 -6 -20 3 0 10 9 16 20 6 11 8 20 6 20 -3
0 -10 -9 -16 -20z"/>
<path d="M6290 2560 c-9 -6 -10 -10 -3 -10 6 0 15 5 18 10 8 12 4 12 -15 0z"/>
<path d="M6248 2543 c7 -3 16 -2 19 1 4 3 -2 6 -13 5 -11 0 -14 -3 -6 -6z"/>
<path d="M2600 2510 c-20 -6 -21 -8 -5 -8 11 0 31 4 45 8 20 6 21 8 5 8 -11 0
-31 -4 -45 -8z"/>
<path d="M2548 2493 c7 -3 16 -2 19 1 4 3 -2 6 -13 5 -11 0 -14 -3 -6 -6z"/>
<path d="M2085 2390 c-25 -11 1 -11 35 0 20 6 21 8 5 8 -11 0 -29 -3 -40 -8z"/>
<path d="M2028 2373 c6 -2 18 -2 25 0 6 3 1 5 -13 5 -14 0 -19 -2 -12 -5z"/>
<path d="M1988 2363 c7 -3 16 -2 19 1 4 3 -2 6 -13 5 -11 0 -14 -3 -6 -6z"/>
<path d="M1638 2283 c7 -3 16 -2 19 1 4 3 -2 6 -13 5 -11 0 -14 -3 -6 -6z"/>
<path d="M6698 2143 c-25 -6 -23 -43 2 -43 15 0 20 7 20 25 0 14 -1 24 -2 24
-2 -1 -11 -3 -20 -6z"/>
<path d="M1700 2108 c-100 -24 -127 -29 -142 -29 -10 0 -18 -3 -18 -7 0 -8 4
-12 104 -95 38 -31 72 -54 75 -52 7 8 28 186 22 189 -3 2 -22 -1 -41 -6z"/>
<path d="M6676 2073 c-2 -10 -7 -64 -11 -120 -6 -87 -4 -103 8 -103 27 0 34
24 41 133 7 103 7 107 -13 107 -11 0 -22 -8 -25 -17z"/>
<path d="M6557 2053 c-3 -5 -8 -59 -12 -121 l-8 -112 34 6 c56 11 79 23 79 40
0 13 -7 15 -31 12 l-32 -5 6 94 c6 87 5 93 -13 93 -10 0 -21 -3 -23 -7z"/>
<path d="M6211 2018 c-10 -27 -7 -33 14 -25 17 7 21 47 5 47 -6 0 -14 -10 -19
-22z"/>
<path d="M6454 2030 c-17 -7 -27 -32 -52 -130 -24 -96 -27 -120 -15 -116 8 3
18 6 23 6 4 0 13 14 19 30 11 34 41 41 41 10 0 -15 7 -20 25 -20 14 0 25 4 25
8 0 15 -21 176 -26 200 -5 24 -8 25 -40 12z m2 -138 c-11 -10 -14 3 -7 38 l6
35 3 -33 c2 -19 1 -36 -2 -40z"/>
<path d="M6363 2008 c-4 -7 -15 -44 -24 -83 l-16 -70 -7 73 c-8 71 -15 82 -44
64 -10 -7 -10 -28 -1 -108 7 -54 15 -103 20 -108 4 -5 19 -6 32 -2 22 5 28 18
55 126 28 112 28 120 11 120 -10 0 -21 -6 -26 -12z"/>
<path d="M6196 1903 c-4 -43 -9 -98 -12 -121 -5 -42 -5 -44 18 -37 13 4 24 8
25 9 0 0 5 52 10 114 8 111 8 112 -13 112 -21 0 -23 -6 -28 -77z"/>
<path d="M6114 1959 c-28 -7 -44 -16 -47 -29 -4 -15 0 -20 14 -20 18 0 19 -6
13 -95 -4 -54 -3 -95 2 -95 29 1 37 22 42 109 2 50 8 91 13 91 11 0 39 29 39
41 0 11 -20 10 -76 -2z"/>
<path d="M5984 1926 c-35 -15 -44 -32 -44 -81 0 -28 5 -35 30 -44 23 -7 30
-16 30 -35 0 -25 -24 -37 -32 -17 -1 5 -13 5 -25 0 -15 -5 -20 -14 -16 -28 6
-25 33 -34 65 -22 34 13 49 34 55 81 5 38 4 41 -31 55 -36 15 -47 37 -25 51 6
3 14 2 18 -3 7 -12 51 2 51 16 0 11 -28 41 -38 41 -4 -1 -21 -7 -38 -14z"/>
<path d="M5848 1898 c-35 -9 -38 -13 -38 -47 0 -21 -3 -73 -7 -116 l-6 -77 44
7 c49 8 69 20 69 42 0 10 -8 12 -34 7 -34 -6 -35 -5 -27 22 5 19 16 30 32 34
14 3 25 14 27 26 3 18 -1 20 -28 16 -28 -4 -31 -2 -28 19 2 16 12 25 36 31 22
6 32 14 32 28 0 22 -14 24 -72 8z"/>
<path d="M1711 1884 c0 -11 3 -14 6 -6 3 7 2 16 -1 19 -3 4 -6 -2 -5 -13z"/>
<path d="M5593 1893 c-18 -7 -16 -43 2 -43 9 0 15 9 15 25 0 14 -1 25 -2 24
-2 0 -9 -3 -15 -6z"/>
<path d="M5713 1869 c-31 -9 -33 -12 -33 -57 0 -26 -3 -77 -7 -114 -5 -59 -4
-68 10 -68 22 0 37 31 37 73 0 30 4 35 30 41 21 4 30 11 30 26 0 16 -5 19 -29
14 -27 -6 -28 -4 -24 20 4 20 13 29 34 33 20 4 29 12 29 24 0 21 -23 23 -77 8z"/>
<path d="M5565 1743 c-3 -54 -8 -108 -11 -120 -3 -15 0 -23 8 -23 31 1 37 19
45 128 8 111 8 112 -13 112 -21 0 -23 -6 -29 -97z"/>
<path d="M5512 1821 c-8 -4 -15 -37 -18 -82 -8 -109 -11 -119 -38 -119 -25 0
-51 -22 -39 -33 13 -13 61 -7 83 11 18 15 24 33 31 98 14 135 12 145 -19 125z"/>
<path d="M1702 1800 c0 -14 2 -19 5 -12 2 6 2 18 0 25 -3 6 -5 1 -5 -13z"/>
<path d="M5319 1772 c-19 -16 -23 -32 -28 -101 -4 -45 -3 -90 1 -101 13 -36
87 -18 107 26 12 27 17 166 7 183 -11 17 -61 13 -87 -7z m46 -94 c-8 -79 -11
-88 -27 -88 -7 0 -8 23 -3 72 7 78 10 88 27 88 7 0 8 -24 3 -72z"/>
<path d="M5192 1751 c-13 -8 -38 -218 -28 -229 3 -2 27 0 53 4 39 7 49 13 51
31 3 21 0 22 -28 16 l-32 -6 7 97 c7 94 4 105 -23 87z"/>
<path d="M5049 1711 c-22 -18 -24 -26 -24 -117 0 -88 2 -99 18 -102 26 -5 74
16 82 36 10 23 24 174 18 189 -8 20 -68 15 -94 -6z m46 -93 c-7 -78 -10 -88
-27 -88 -7 0 -8 23 -3 72 7 78 10 88 27 88 7 0 8 -23 3 -72z"/>
<path d="M4974 1702 c-6 -4 -15 -29 -19 -57 l-8 -50 -15 48 c-15 46 -25 54
-48 39 -6 -4 -14 -56 -19 -119 -6 -100 -5 -113 9 -113 19 0 36 38 37 83 1 31
1 31 16 -11 15 -44 37 -62 53 -46 11 12 24 234 14 234 -5 0 -14 -4 -20 -8z"/>
<path d="M4791 1633 l-20 -38 -1 32 c0 26 -3 30 -19 26 -21 -5 -21 -6 -36
-171 -6 -62 -6 -63 17 -60 19 2 24 11 29 48 l5 45 12 -28 c7 -16 12 -33 12
-38 0 -5 11 -9 25 -9 30 0 31 4 4 75 l-21 55 26 46 c31 56 31 54 6 54 -12 0
-27 -13 -39 -37z"/>
<path d="M4633 1629 c-30 -9 -32 -11 -38 -77 -3 -37 -8 -89 -12 -116 l-5 -49
38 7 c64 12 74 16 74 37 0 18 -4 20 -31 14 -29 -7 -30 -5 -27 21 2 21 10 30
28 34 35 8 40 40 6 40 -21 0 -26 5 -26 24 0 19 7 26 29 31 36 8 51 45 18 44
-12 0 -36 -5 -54 -10z"/>
<path d="M4498 1598 c-27 -7 -38 -15 -38 -29 0 -12 7 -19 19 -19 18 0 19 -6
14 -90 -6 -85 -5 -90 14 -90 17 0 21 9 27 61 3 34 6 79 6 100 0 32 3 39 20 39
13 0 20 7 20 20 0 23 -20 24 -82 8z"/>
<path d="M4358 1567 c-53 -10 -51 -6 -64 -166 -6 -78 -5 -83 12 -78 11 3 36 9
57 13 28 5 37 11 37 26 0 17 -5 20 -30 15 -28 -6 -30 -4 -30 22 0 24 5 30 30
35 22 4 30 11 30 26 0 16 -6 20 -22 18 -25 -3 -28 1 -28 32 0 15 7 20 25 20
24 0 41 19 33 37 -1 5 -24 5 -50 0z"/>
<path d="M4253 1542 c-6 -4 -18 -40 -26 -80 -19 -92 -27 -101 -27 -31 0 68 -8
99 -26 99 -24 0 -27 -26 -14 -130 13 -102 21 -115 58 -92 10 7 38 97 66 215 6
27 -6 35 -31 19z"/>
<path d="M4040 1474 c-6 -14 -10 -31 -10 -39 0 -30 -19 -23 -22 7 -2 25 -8 34
-25 36 -27 4 -28 -5 -8 -72 8 -27 15 -71 15 -98 0 -41 3 -48 20 -48 16 0 20 7
20 38 0 20 13 74 29 120 28 78 29 82 10 82 -12 0 -23 -10 -29 -26z"/>
<path d="M3893 1462 c-24 -3 -24 -4 -58 -142 -9 -36 -18 -73 -21 -83 -5 -15
-1 -18 17 -15 14 2 25 11 28 23 6 35 41 48 41 15 0 -15 7 -20 26 -20 25 0 26
2 20 38 -3 20 -9 70 -13 110 -3 40 -9 74 -12 75 -3 2 -16 1 -28 -1z m7 -102
c0 -29 -4 -40 -15 -40 -8 0 -13 6 -11 13 3 6 7 24 10 40 9 39 16 33 16 -13z"/>
<path d="M3750 1433 c-25 -5 -40 -19 -40 -39 0 -7 10 -9 25 -6 32 6 32 -4 -5
-85 -33 -72 -39 -119 -16 -110 8 3 31 9 50 13 27 5 36 11 36 26 0 17 -5 19
-25 14 -14 -4 -25 -3 -25 2 0 5 16 45 35 89 19 45 35 86 35 92 0 11 -24 12
-70 4z"/>
<path d="M3669 1413 c-19 -5 -29 -50 -29 -136 0 -43 -4 -59 -15 -64 -9 -3 -18
-4 -20 -2 -2 2 0 44 4 92 4 48 5 90 3 91 -2 2 -11 2 -21 -1 -15 -4 -19 -20
-25 -100 -5 -66 -3 -100 5 -109 17 -21 57 -17 83 9 20 20 24 38 31 121 4 54 5
98 3 100 -1 1 -10 1 -19 -1z"/>
<path d="M1651 1394 c0 -11 3 -14 6 -6 3 7 2 16 -1 19 -3 4 -6 -2 -5 -13z"/>
<path d="M3414 1352 c-6 -4 -19 -22 -28 -39 -21 -41 -28 -42 -21 -3 4 25 2 30
-14 30 -11 0 -22 -3 -24 -7 -3 -5 -8 -58 -12 -120 -7 -111 -7 -112 14 -106 16
4 21 13 21 37 0 17 4 38 10 46 7 11 11 9 19 -13 6 -16 11 -33 11 -38 0 -5 11
-9 24 -9 l24 0 -21 65 -21 65 22 45 c12 25 22 48 22 50 0 7 -13 6 -26 -3z"/>
<path d="M3268 1323 c-17 -4 -18 -14 -33 -185 -3 -42 -1 -48 15 -48 14 0 20 9
24 33 7 43 18 207 14 206 -2 -1 -11 -3 -20 -6z"/>
<path d="M3133 1288 c-6 -7 -13 -62 -17 -121 -6 -101 -6 -108 11 -104 10 3 32
8 50 12 29 6 49 26 36 39 -3 3 -18 2 -34 -1 l-28 -5 5 53 c2 30 7 73 9 97 5
43 -11 57 -32 30z"/>
<path d="M3056 1272 c-3 -5 -8 -47 -11 -93 -4 -46 -8 -94 -11 -106 -3 -18 0
-23 15 -23 11 0 22 3 24 8 2 4 8 55 11 115 6 92 5 107 -8 107 -8 0 -17 -4 -20
-8z"/>
<path d="M2934 1237 c-24 -21 -28 -33 -33 -106 -7 -91 -1 -111 33 -111 28 0
76 36 76 56 0 19 -30 18 -45 -3 -21 -29 -32 -7 -24 54 4 32 8 66 8 76 1 18 27
24 33 6 4 -13 38 0 38 15 0 17 -21 36 -41 36 -10 0 -30 -11 -45 -23z"/>
<path d="M2814 1222 c-19 -3 -26 -20 -51 -123 -29 -117 -29 -120 -9 -117 12 2
23 13 26 28 8 33 50 42 50 11 0 -22 24 -29 35 -10 8 12 -15 208 -24 212 -3 2
-16 1 -27 -1z m2 -140 c-13 -12 -17 8 -9 44 l8 39 3 -39 c2 -21 1 -41 -2 -44z"/>
<path d="M2728 1200 c-10 -6 -21 -36 -29 -80 -15 -87 -29 -100 -29 -28 0 76
-7 97 -32 90 -18 -4 -19 -11 -14 -51 3 -25 8 -74 12 -108 7 -64 18 -76 52 -55
9 6 72 213 72 238 0 7 -14 4 -32 -6z"/>
<path d="M3465 1181 c-10 -16 -13 -91 -4 -91 12 0 39 55 39 80 0 20 -24 28
-35 11z"/>
<path d="M2545 1161 c-16 -7 -26 -31 -44 -105 -12 -53 -25 -105 -28 -116 -9
-33 27 -24 38 10 13 35 49 43 49 10 0 -13 7 -20 18 -20 28 0 30 6 21 63 -4 28
-10 78 -14 110 -7 60 -8 61 -40 48z m15 -101 c0 -30 -4 -40 -16 -40 -12 0 -15
6 -10 23 3 12 6 30 6 40 0 9 5 17 10 17 6 0 10 -18 10 -40z"/>
<path d="M2427 1133 c-4 -3 -7 -25 -7 -49 0 -29 -5 -44 -16 -48 -25 -10 -26
-8 -22 37 2 36 0 42 -16 42 -22 0 -21 1 -31 -130 -7 -91 -6 -97 11 -93 15 2
20 15 24 53 4 37 9 51 23 53 14 3 17 -4 17 -42 0 -33 4 -46 14 -46 22 0 23 5
31 123 6 89 5 107 -7 107 -8 0 -18 -3 -21 -7z"/>
</g>
</svg>
