<?xml version="1.0" standalone="no"?>
<!DOCTYPE svg PUBLIC "-//W3C//DTD SVG 20010904//EN"
 "http://www.w3.org/TR/2001/REC-SVG-20010904/DTD/svg10.dtd">
<svg version="1.0" xmlns="http://www.w3.org/2000/svg"
 width="900.000000pt" height="887.000000pt" viewBox="0 0 900.000000 887.000000"
 preserveAspectRatio="xMidYMid meet">

<g transform="translate(0.000000,887.000000) scale(0.100000,-0.100000)"
fill="#000000" stroke="none">
<path d="M4315 8860 c-265 -23 -558 -115 -796 -251 -586 -335 -962 -941 -1005
-1616 l-7 -113 -664 -2 -665 -3 354 -495 c195 -272 550 -767 788 -1100 239
-333 563 -785 720 -1005 157 -220 470 -656 695 -970 225 -313 488 -682 586
-818 98 -136 180 -248 184 -248 6 0 117 154 1035 1436 313 438 957 1336 2202
3073 48 68 88 125 88 128 0 2 -299 4 -664 4 l-663 0 -7 108 c-34 508 -237 955
-596 1310 -416 412 -981 612 -1585 562z m360 -110 c639 -61 1203 -438 1494
-1001 132 -253 194 -480 216 -781 l7 -88 54 0 54 0 0 -69 c0 -174 -53 -444
-125 -636 -113 -301 -315 -593 -555 -801 -57 -50 -101 -96 -105 -111 -16 -64
-89 -212 -151 -305 -184 -277 -475 -473 -806 -544 -102 -21 -305 -29 -410 -15
-463 62 -853 362 -1025 790 l-42 105 -95 83 c-406 354 -675 926 -676 1436 l0
67 55 0 c50 0 55 2 55 23 0 70 25 268 46 370 194 921 1070 1565 2009 1477z"/>
<path d="M4268 8494 c-386 -58 -763 -267 -1007 -557 -229 -274 -364 -607 -387
-955 l-7 -102 -119 0 -118 0 0 -82 c1 -417 202 -890 520 -1221 l85 -89 -1 175
0 176 -67 93 c-171 240 -280 547 -294 836 l-6 112 95 0 96 0 7 -82 c19 -248
95 -491 209 -673 l25 -40 18 44 c9 24 27 64 38 90 l22 46 -33 71 c-68 150
-114 341 -114 475 l0 69 438 -1 c325 0 431 -3 412 -11 -232 -102 -328 -164
-471 -307 -99 -99 -219 -258 -219 -290 0 -20 44 -94 99 -166 137 -181 326
-326 532 -409 463 -187 985 -92 1352 244 102 94 247 288 247 331 0 32 -120
191 -219 290 -140 140 -238 204 -471 307 -19 8 85 11 413 11 l437 1 0 -69 c0
-134 -45 -320 -113 -473 l-34 -73 33 -75 c19 -41 34 -81 34 -87 0 -29 19 -8
63 70 104 186 163 390 182 625 l7 82 96 0 95 0 -6 -112 c-14 -288 -123 -597
-294 -836 l-66 -92 -1 -176 -1 -176 85 89 c233 243 388 527 474 868 24 96 46
266 46 354 l0 81 -119 0 -118 0 -7 103 c-15 221 -69 418 -171 622 -81 162
-172 291 -295 415 -227 231 -523 392 -845 460 -134 28 -418 36 -557 14z m412
-184 c553 -69 1026 -456 1194 -980 41 -125 63 -234 72 -359 l7 -91 -85 0 -85
0 -6 88 c-23 317 -165 617 -397 835 -238 224 -548 347 -875 347 -484 0 -928
-275 -1144 -708 -70 -139 -131 -378 -131 -509 l0 -53 -86 0 -87 0 6 89 c25
354 173 677 422 926 98 99 255 214 368 272 130 65 320 124 462 142 100 12 267
13 365 1z"/>
<path d="M3298 6064 c-12 -19 -48 -173 -48 -204 0 -42 69 -122 194 -227 663
-557 1616 -516 2223 95 82 82 93 98 93 129 0 37 -37 193 -49 205 -3 4 -27 -20
-51 -54 -63 -87 -212 -233 -308 -301 -164 -118 -364 -206 -565 -249 -83 -18
-135 -21 -282 -21 -147 0 -199 3 -282 21 -324 70 -616 241 -816 481 -40 48
-79 97 -88 110 -8 14 -18 20 -21 15z"/>
<path d="M3250 5452 c0 -9 8 -48 18 -87 l18 -70 99 -67 c239 -165 531 -279
828 -325 137 -21 421 -23 557 -4 298 41 613 162 855 329 l99 67 18 70 c28 112
28 112 -76 31 -437 -341 -983 -471 -1533 -365 -277 53 -555 182 -789 365 -67
52 -94 69 -94 56z"/>
<path d="M2240 1565 l0 -105 100 0 100 0 0 105 0 105 -100 0 -100 0 0 -105z"/>
<path d="M2560 1565 l0 -105 100 0 100 0 0 105 0 105 -100 0 -100 0 0 -105z"/>
<path d="M4390 1565 l0 -105 115 0 115 0 0 105 0 105 -115 0 -115 0 0 -105z"/>
<path d="M1180 1245 l0 -115 80 0 80 0 0 -555 0 -556 118 3 117 3 3 553 2 552
80 0 80 0 0 115 0 115 -280 0 -280 0 0 -115z"/>
<path d="M2167 1353 c-4 -3 -7 -239 -7 -523 0 -571 2 -592 63 -683 57 -85 175
-147 281 -147 126 0 260 95 306 218 19 50 20 79 20 598 l0 545 -117 -3 -118
-3 -5 -540 c-3 -297 -9 -546 -14 -554 -5 -7 -24 -20 -43 -27 -31 -13 -38 -13
-71 3 -20 10 -42 29 -49 43 -10 19 -13 152 -13 553 l0 527 -113 0 c-63 0 -117
-3 -120 -7z"/>
<path d="M3295 1349 c-3 -8 -4 -309 -3 -669 l3 -655 139 -3 c76 -1 164 2 195
8 125 23 238 106 293 218 20 40 23 62 23 152 0 94 -3 110 -27 155 -28 54 -73
101 -126 133 l-33 20 35 21 c47 29 95 85 119 140 24 55 28 175 8 236 -36 105
-118 184 -236 226 -77 28 -381 41 -390 18z m335 -237 c47 -23 70 -72 70 -147
0 -95 -58 -165 -137 -165 l-33 0 0 165 0 165 33 0 c17 0 48 -8 67 -18z m-13
-541 c94 -43 128 -165 69 -250 -29 -41 -94 -81 -134 -81 -22 0 -22 2 -22 175
0 175 0 175 23 175 12 0 41 -9 64 -19z"/>
<path d="M4390 690 l0 -670 115 0 115 0 0 670 0 670 -115 0 -115 0 0 -670z"/>
<path d="M5050 1245 l0 -115 80 0 80 0 0 -555 0 -555 120 0 120 0 0 555 0 555
85 0 86 0 -3 113 -3 112 -282 3 -283 2 0 -115z"/>
<path d="M6245 1348 c-6 -17 -265 -1303 -265 -1317 0 -7 38 -11 110 -11 127 0
110 -18 138 150 l18 105 110 3 110 3 18 -113 c9 -62 19 -121 22 -130 5 -16 19
-18 115 -18 86 0 109 3 109 14 0 20 -260 1308 -266 1318 -9 14 -214 10 -219
-4z m145 -645 c16 -95 30 -179 30 -187 0 -13 -13 -16 -65 -16 -36 0 -65 3 -65
8 -1 15 65 383 67 375 1 -4 16 -85 33 -180z"/>
<path d="M7140 690 l0 -670 120 0 120 0 0 184 c0 178 3 198 36 286 3 8 37 -90
75 -219 38 -129 72 -238 75 -242 5 -9 264 -13 264 -4 0 3 -52 176 -115 386
-79 262 -112 386 -106 398 12 22 221 539 221 546 0 3 -59 4 -131 3 l-131 -3
-33 -90 c-59 -160 -145 -405 -145 -414 0 -6 -3 -12 -7 -14 -5 -3 -8 113 -8
256 l0 262 -117 3 -118 3 0 -671z"/>
</g>
</svg>
