<?xml version="1.0" standalone="no"?>
<!DOCTYPE svg PUBLIC "-//W3C//DTD SVG 20010904//EN"
 "http://www.w3.org/TR/2001/REC-SVG-20010904/DTD/svg10.dtd">
<svg version="1.0" xmlns="http://www.w3.org/2000/svg"
 width="1907.000000pt" height="1474.000000pt" viewBox="0 0 1907.000000 1474.000000"
 preserveAspectRatio="xMidYMid meet">

<g transform="translate(0.000000,1474.000000) scale(0.100000,-0.100000)"
fill="#000000" stroke="none">
<path d="M10422 14150 c-99 -26 -161 -62 -226 -130 -148 -155 -193 -381 -183
-908 6 -316 20 -410 81 -539 97 -203 276 -294 620 -313 268 -14 356 -61 701
-374 160 -146 237 -200 307 -216 210 -51 344 273 469 1135 57 389 50 522 -36
700 -48 100 -134 203 -234 279 -177 136 -445 243 -789 316 -332 70 -569 87
-710 50z m409 -864 c111 -26 206 -105 257 -214 24 -50 27 -70 27 -157 0 -90
-3 -106 -29 -160 -38 -76 -105 -143 -181 -181 -54 -26 -70 -29 -160 -29 -88 0
-107 3 -157 27 -234 109 -299 402 -133 595 66 77 180 131 280 132 22 0 65 -5
96 -13z m1215 -11 c15 -23 16 -47 11 -193 -15 -413 -162 -1047 -267 -1152 -41
-41 -63 -14 -75 90 -14 129 40 544 106 808 54 215 123 396 172 450 26 28 33
28 53 -3z"/>
<path d="M5930 12661 l-105 -6 65 -8 c243 -28 865 -135 1215 -209 754 -158
1304 -329 1720 -533 357 -175 566 -349 668 -554 l42 -85 -1 -120 c0 -107 -3
-130 -28 -196 -83 -224 -259 -461 -473 -640 -180 -150 -410 -292 -632 -390
-66 -30 -119 -55 -118 -56 1 -2 187 -42 412 -89 857 -180 992 -222 1659 -507
l190 -81 29 34 c88 104 480 598 583 735 149 199 289 408 332 496 50 103 66
189 65 368 0 124 -5 175 -22 254 -45 195 -122 376 -205 478 -211 259 -808 544
-1576 752 -657 178 -1247 268 -2100 321 -496 30 -1472 51 -1720 36z"/>
<path d="M7816 9604 c-70 -17 -222 -87 -315 -146 -488 -307 -1222 -1088 -2051
-2182 -204 -270 -480 -650 -475 -654 2 -2 51 25 108 62 855 536 1848 929 2897
1144 574 118 1128 162 1656 132 992 -58 2009 -337 2889 -794 312 -162 591
-331 1063 -645 419 -278 713 -491 1037 -750 66 -53 131 -105 145 -115 l25 -20
-21 25 c-12 13 -124 148 -250 299 -126 151 -265 316 -309 365 -363 408 -891
881 -1454 1304 -637 479 -1192 822 -1901 1177 -955 478 -1730 706 -2714 799
-191 18 -252 18 -330 -1z"/>
<path d="M802 5315 c-66 -29 -62 61 -60 -1471 l3 -1386 24 -19 c21 -18 42 -19
263 -19 l239 0 24 25 25 24 0 431 0 430 608 -1 607 0 304 -445 c168 -245 313
-450 322 -455 11 -5 137 -8 306 -7 l288 3 13 29 c10 20 11 34 4 50 -5 11 -152
216 -326 455 -175 238 -315 435 -312 438 2 2 47 19 99 37 117 40 179 79 254
159 97 104 160 264 183 467 16 138 7 588 -14 687 -35 169 -93 287 -186 383
-85 87 -191 140 -355 178 -102 23 -2262 30 -2313 7z m2141 -594 c60 -30 111
-89 134 -155 15 -43 18 -85 18 -266 0 -255 -9 -293 -84 -370 -80 -83 -44 -80
-923 -80 l-768 0 0 434 c0 239 3 442 6 450 6 15 77 16 788 14 l781 -3 48 -24z"/>
<path d="M4945 5324 c-468 -33 -727 -205 -838 -559 -59 -187 -62 -234 -62
-900 0 -656 2 -686 56 -870 86 -289 260 -456 552 -530 172 -43 259 -47 1092
-42 746 3 784 4 876 24 214 47 333 108 447 227 117 123 185 290 217 534 21
157 21 1164 0 1324 -20 156 -48 257 -102 368 -39 80 -59 108 -132 180 -124
124 -240 179 -466 222 -105 20 -146 21 -850 23 -407 1 -762 1 -790 -1z m1382
-584 c288 -26 370 -123 394 -469 16 -216 5 -860 -15 -958 -38 -186 -127 -273
-306 -302 -105 -17 -1375 -14 -1473 4 -180 32 -267 132 -296 339 -18 125 -14
954 4 1058 39 222 134 306 370 328 123 11 1196 11 1322 0z"/>
<path d="M8001 5319 c-71 -12 -140 -51 -171 -95 -13 -20 -33 -68 -44 -108 -20
-69 -21 -102 -24 -1331 -2 -693 0 -1275 3 -1293 3 -18 15 -42 26 -53 18 -18
35 -19 253 -19 l235 0 20 26 c21 27 21 29 21 1138 0 852 3 1115 12 1124 14 14
57 16 76 3 7 -4 190 -442 406 -972 216 -530 409 -995 428 -1034 72 -141 155
-228 251 -262 44 -15 85 -18 267 -18 273 0 294 6 395 109 42 43 85 100 107
141 20 39 215 509 433 1045 218 536 404 981 413 988 20 15 64 16 80 0 9 -9 12
-273 12 -1128 l0 -1117 23 -21 c23 -21 31 -22 253 -22 229 0 231 0 252 23 l22
24 -2 1309 c-3 1213 -4 1313 -20 1360 -33 96 -86 150 -172 177 -29 8 -131 12
-346 12 -267 0 -311 -2 -356 -18 -65 -22 -120 -70 -161 -138 -18 -30 -217
-526 -443 -1104 -227 -577 -419 -1058 -427 -1067 -11 -12 -31 -18 -58 -18 -27
0 -47 6 -57 18 -8 9 -196 481 -418 1047 -221 567 -416 1056 -432 1088 -42 84
-99 142 -166 168 -54 21 -74 23 -347 25 -159 2 -314 -2 -344 -7z"/>
<path d="M13070 5319 c-282 -25 -456 -94 -601 -239 -132 -132 -195 -274 -236
-532 -16 -99 -18 -184 -18 -668 0 -592 4 -666 51 -849 13 -52 45 -138 70 -190
39 -81 60 -109 133 -181 97 -96 194 -152 333 -190 173 -47 232 -50 1226 -50
907 0 933 1 951 19 28 28 33 81 29 308 -3 195 -4 203 -26 225 l-23 23 -932 5
c-932 5 -932 5 -998 28 -174 58 -233 169 -246 460 l-6 142 1077 0 1077 0 24
25 c25 24 25 24 25 235 0 197 -1 211 -20 230 -20 20 -33 20 -1102 20 l-1081 0
6 123 c12 249 55 353 172 422 99 59 88 58 1093 64 890 6 924 7 937 25 22 30
27 88 23 303 -3 195 -4 203 -26 225 l-23 23 -897 1 c-493 1 -940 -2 -992 -7z"/>
<path d="M15492 5315 c-66 -29 -62 61 -60 -1471 l3 -1386 24 -19 c21 -18 42
-19 266 -19 l244 0 20 26 c21 26 21 37 21 455 l0 429 608 -1 607 0 305 -445
c168 -245 313 -450 322 -455 10 -5 144 -8 305 -7 l288 3 13 29 c10 20 11 34 4
50 -5 11 -152 216 -326 455 -175 239 -313 437 -309 440 4 4 47 19 94 34 140
44 263 140 333 259 41 71 83 204 100 321 22 143 22 531 0 675 -29 196 -90 335
-194 442 -85 87 -191 140 -355 178 -102 23 -2262 30 -2313 7z m2140 -593 c60
-30 112 -90 135 -156 15 -43 18 -86 18 -271 0 -206 -2 -224 -23 -277 -14 -35
-39 -71 -66 -96 -80 -74 -53 -72 -918 -72 l-768 0 0 434 c0 239 3 442 6 450 6
15 77 16 788 14 l781 -3 47 -23z"/>
<path d="M3524 1925 c-3 -8 -4 -98 -2 -199 3 -184 3 -186 29 -211 34 -34 82
-45 209 -45 129 0 178 11 208 45 20 23 22 37 22 130 0 93 -2 107 -22 130 -31
35 -79 44 -230 45 l-128 0 0 60 0 60 -40 0 c-27 0 -43 -5 -46 -15z m364 -197
c7 -7 12 -41 12 -83 0 -42 -5 -76 -12 -83 -8 -8 -51 -12 -129 -12 -141 0 -143
1 -148 112 l-3 78 134 0 c91 0 138 -4 146 -12z"/>
<path d="M4902 1898 c3 -43 3 -43 43 -43 40 0 40 0 43 43 l3 42 -46 0 -46 0 3
-42z"/>
<path d="M5067 1934 c-4 -4 -7 -105 -7 -224 0 -231 2 -240 50 -240 39 0 50 18
50 82 l0 58 80 0 80 0 51 -70 c48 -66 53 -70 89 -70 21 0 42 4 45 10 6 10 -72
121 -107 152 -20 18 -20 18 10 52 46 52 92 123 85 130 -4 3 -23 6 -44 6 -35 0
-41 -5 -84 -64 -25 -35 -52 -67 -61 -70 -9 -3 -44 -6 -80 -6 l-63 0 -3 128 -3
127 -40 3 c-23 2 -44 0 -48 -4z"/>
<path d="M10684 1927 c-2 -7 -3 -111 -2 -232 l3 -220 40 0 40 0 3 68 3 67 83
0 84 0 51 -70 c48 -66 53 -70 90 -70 22 0 42 4 45 9 6 9 -47 85 -96 137 l-29
31 55 74 c31 41 56 80 56 86 0 8 -15 13 -40 13 -38 0 -43 -4 -86 -62 -25 -35
-51 -66 -58 -70 -6 -4 -44 -8 -83 -8 l-73 0 0 130 0 130 -40 0 c-24 0 -43 -5
-46 -13z"/>
<path d="M12892 1708 l3 -233 40 0 40 0 3 68 3 67 80 0 c63 0 82 -3 93 -17 8
-10 33 -42 56 -70 36 -48 44 -53 79 -53 21 0 41 3 44 6 7 7 -16 42 -81 122
l-42 52 55 73 c30 41 55 79 55 85 0 13 -68 16 -85 4 -6 -4 -28 -32 -50 -62
-22 -30 -44 -58 -50 -62 -5 -4 -43 -8 -82 -8 l-73 0 0 130 0 130 -45 0 -45 0
2 -232z"/>
<path d="M14472 1708 l3 -233 40 0 40 0 3 233 2 232 -45 0 -45 0 2 -232z"/>
<path d="M15182 1898 c3 -43 3 -43 43 -43 40 0 40 0 43 43 l3 42 -46 0 -46 0
3 -42z"/>
<path d="M15352 1898 c3 -43 3 -43 43 -43 40 0 40 0 43 43 l3 42 -46 0 -46 0
3 -42z"/>
<path d="M15522 1708 c3 -216 4 -233 21 -236 10 -2 30 -1 43 2 l24 6 -2 228
-3 227 -43 3 -42 3 2 -233z"/>
<path d="M16552 1898 c3 -43 3 -43 43 -43 40 0 40 0 43 43 l3 42 -46 0 -46 0
3 -42z"/>
<path d="M2452 1693 l3 -218 40 0 40 0 3 68 3 67 102 0 103 0 52 -70 c51 -68
53 -70 97 -70 24 0 46 4 50 9 3 5 -18 38 -46 72 -49 58 -51 63 -34 75 10 8 22
14 27 14 19 0 38 63 38 129 0 64 -3 74 -29 103 l-29 33 -211 3 -211 3 2 -218z
m378 108 c5 -11 10 -32 10 -46 0 -14 -5 -35 -10 -46 -10 -17 -23 -19 -150 -19
l-140 0 0 65 0 65 140 0 c127 0 140 -2 150 -19z"/>
<path d="M4637 1904 c-4 -4 -7 -24 -7 -45 0 -35 -2 -38 -32 -41 -30 -3 -33 -6
-33 -38 0 -32 3 -35 31 -38 l31 -3 5 -99 c7 -145 25 -164 153 -165 l60 0 0 35
0 35 -55 5 -55 5 -3 93 -3 92 56 0 c61 0 72 10 61 55 -6 23 -11 25 -61 25
l-54 0 -3 43 c-3 41 -4 42 -43 45 -23 2 -44 0 -48 -4z"/>
<path d="M6916 1898 c4 -7 54 -74 111 -149 l103 -136 0 -66 c0 -62 2 -67 24
-73 13 -3 35 -4 47 -2 22 3 24 9 29 73 l5 70 103 134 c57 73 106 139 109 147
4 11 -6 14 -43 14 l-49 0 -84 -115 c-47 -63 -88 -112 -92 -108 -5 5 -43 55
-86 113 l-78 105 -54 3 c-41 2 -51 0 -45 -10z"/>
<path d="M9662 1868 l3 -43 179 -5 c133 -4 176 -8 165 -16 -8 -6 -81 -46 -164
-89 -82 -43 -158 -85 -167 -93 -27 -23 -25 -127 2 -142 12 -7 95 -9 227 -8
l208 3 3 43 3 42 -180 0 c-100 0 -181 4 -181 8 0 5 79 50 175 101 99 52 180
101 186 113 14 26 6 108 -12 119 -8 5 -112 9 -232 9 l-218 0 3 -42z"/>
<path d="M11850 1865 l0 -45 105 0 105 0 2 -172 3 -173 40 0 40 0 3 173 2 172
105 0 105 0 0 45 0 45 -255 0 -255 0 0 -45z"/>
<path d="M3075 1811 c-76 -19 -95 -53 -95 -166 0 -89 15 -132 53 -152 27 -15
58 -18 187 -18 216 0 234 13 235 170 0 98 -13 132 -57 157 -27 14 -276 21
-323 9z m273 -83 c7 -7 12 -41 12 -83 0 -42 -5 -76 -12 -83 -15 -15 -235 -16
-258 -2 -11 7 -15 29 -15 85 0 56 4 78 15 85 23 14 243 13 258 -2z"/>
<path d="M4137 1808 c-60 -16 -77 -53 -77 -163 0 -159 37 -182 277 -173 180 7
197 24 191 190 -3 111 -16 133 -84 148 -52 12 -259 11 -307 -2z m291 -80 c7
-7 12 -41 12 -83 0 -42 -5 -76 -12 -83 -8 -8 -53 -12 -135 -12 -142 0 -143 1
-143 95 0 94 1 95 143 95 82 0 127 -4 135 -12z"/>
<path d="M4905 1808 c-3 -8 -4 -86 -3 -173 l3 -160 40 0 40 0 0 170 0 170 -38
3 c-24 2 -39 -1 -42 -10z"/>
<path d="M5740 1808 c0 -7 40 -83 89 -168 82 -144 91 -156 124 -164 22 -6 48
-6 68 0 28 8 43 28 120 164 49 85 89 161 89 168 0 9 -13 12 -42 10 l-43 -3
-75 -132 c-41 -73 -79 -131 -85 -129 -5 1 -40 55 -76 119 -36 64 -72 123 -79
132 -15 19 -90 21 -90 3z"/>
<path d="M6335 1813 c-84 -18 -105 -52 -105 -168 0 -156 22 -170 260 -170
l165 0 3 38 3 37 -155 0 c-164 0 -186 6 -186 50 0 18 10 20 173 22 l172 3 3
59 c4 80 -11 113 -57 126 -35 10 -236 12 -276 3z m229 -69 c10 -4 16 -18 16
-35 l0 -29 -131 0 c-129 0 -130 0 -127 22 2 12 14 28 28 35 26 13 185 18 214
7z"/>
<path d="M7454 1806 c-3 -8 -4 -25 -2 -38 3 -23 5 -23 158 -28 85 -3 161 -9
168 -13 6 -5 12 -16 12 -27 0 -16 -13 -18 -151 -22 -151 -3 -151 -3 -175 -31
-47 -55 -27 -150 35 -167 48 -13 337 -13 362 0 17 10 19 22 19 133 0 195 -16
207 -281 207 -112 0 -141 -3 -145 -14z m334 -223 l-3 -38 -105 -3 c-134 -4
-150 0 -150 37 0 15 3 31 7 34 3 4 62 7 130 7 l124 0 -3 -37z"/>
<path d="M8045 1813 c-98 -21 -105 -40 -105 -283 l0 -190 45 0 45 0 0 65 0 65
120 0 c138 0 210 13 237 42 15 17 18 37 18 133 0 130 -7 146 -80 164 -42 11
-238 14 -280 4z m256 -83 c16 -9 19 -22 19 -85 0 -63 -3 -76 -19 -85 -11 -5
-76 -10 -145 -10 l-126 0 0 79 c0 109 3 111 141 111 61 0 119 -5 130 -10z"/>
<path d="M8488 1814 c-5 -4 -8 -22 -8 -41 l0 -33 154 0 c127 0 157 -3 170 -16
9 -8 16 -22 16 -30 0 -11 -23 -14 -122 -14 -137 -1 -196 -10 -215 -36 -15 -21
-17 -108 -3 -134 16 -30 74 -40 242 -40 129 0 159 3 172 16 13 12 16 39 16
123 0 195 -10 204 -250 209 -91 2 -168 0 -172 -4z m330 -231 l-3 -38 -105 -3
c-134 -4 -150 0 -150 37 0 15 3 31 7 34 3 4 62 7 130 7 l124 0 -3 -37z"/>
<path d="M8930 1808 c0 -19 159 -291 182 -310 20 -18 20 -18 1 -50 -15 -27
-26 -34 -56 -36 -35 -3 -37 -5 -37 -38 l0 -34 54 0 c43 0 60 5 80 23 27 23
256 422 256 445 0 9 -12 12 -42 10 l-43 -3 -72 -125 c-40 -68 -76 -126 -80
-127 -5 -2 -37 47 -72 109 -35 62 -71 121 -79 131 -17 20 -92 24 -92 5z"/>
<path d="M10285 1813 c-84 -18 -105 -52 -105 -168 0 -156 22 -170 260 -170
l165 0 3 38 3 37 -155 0 c-164 0 -186 6 -186 50 0 18 10 20 173 22 l172 3 3
59 c4 80 -11 113 -57 126 -35 10 -236 12 -276 3z m229 -69 c10 -4 16 -18 16
-35 l0 -29 -131 0 c-129 0 -130 0 -127 22 2 12 14 28 28 35 26 13 185 18 214
7z"/>
<path d="M11174 1806 c-3 -8 -4 -25 -2 -38 3 -23 5 -23 158 -28 85 -3 161 -9
168 -13 6 -5 12 -16 12 -27 0 -16 -13 -18 -151 -22 -151 -3 -151 -3 -175 -31
-47 -55 -27 -150 35 -167 48 -13 337 -13 362 0 17 10 19 22 19 133 0 195 -16
207 -281 207 -112 0 -141 -3 -145 -14z m334 -223 l-3 -38 -105 -3 c-134 -4
-150 0 -150 37 0 15 3 31 7 34 3 4 62 7 130 7 l124 0 -3 -37z"/>
<path d="M12470 1810 c-19 -5 -45 -20 -57 -35 -21 -23 -23 -36 -23 -130 0 -94
2 -106 23 -130 30 -35 79 -44 254 -45 l143 0 6 25 c13 53 7 55 -159 55 -162 0
-177 4 -177 47 0 22 1 23 167 25 l168 3 9 26 c12 35 -1 113 -24 141 -17 22
-26 23 -157 25 -76 1 -154 -2 -173 -7z m251 -70 c11 -6 19 -21 19 -35 l0 -25
-131 0 -130 0 3 27 c2 19 10 29 28 34 40 11 189 10 211 -1z"/>
<path d="M13475 1811 c-84 -20 -98 -53 -93 -221 l3 -115 40 0 40 0 5 117 c3
77 9 122 18 130 18 18 246 18 264 0 9 -8 15 -53 18 -130 5 -127 8 -132 67
-117 l25 6 -4 135 c-3 128 -5 135 -29 160 -14 14 -43 29 -65 34 -46 11 -245
11 -289 1z"/>
<path d="M14010 1810 c-70 -17 -100 -95 -85 -218 13 -107 66 -129 283 -120
166 7 192 30 192 173 0 150 -24 168 -220 172 -74 1 -151 -2 -170 -7z m284 -86
c11 -11 16 -35 16 -79 0 -92 -5 -95 -149 -95 -78 0 -121 4 -129 12 -7 7 -12
41 -12 83 0 42 5 76 12 83 8 8 51 12 129 12 94 0 121 -3 133 -16z"/>
<path d="M14707 1808 c-60 -16 -77 -53 -77 -163 0 -159 37 -182 277 -173 180
7 197 24 191 190 -3 111 -16 133 -84 148 -52 12 -259 11 -307 -2z m291 -80 c7
-7 12 -41 12 -83 0 -42 -5 -76 -12 -83 -8 -8 -53 -12 -135 -12 -142 0 -143 1
-143 95 0 94 1 95 143 95 82 0 127 -4 135 -12z"/>
<path d="M15187 1814 c-4 -4 -7 -92 -7 -195 0 -211 1 -209 -74 -209 -35 0 -36
-1 -36 -36 l0 -36 75 4 c61 3 79 7 97 26 22 22 23 28 23 235 l0 212 -35 3
c-20 2 -39 0 -43 -4z"/>
<path d="M15355 1808 c-3 -8 -4 -86 -3 -173 l3 -160 40 0 40 0 0 170 0 170
-38 3 c-24 2 -39 -1 -42 -10z"/>
<path d="M15747 1808 c-63 -17 -78 -53 -75 -174 2 -83 7 -106 22 -123 27 -30
106 -42 262 -39 l139 3 0 35 0 35 -155 5 c-85 3 -161 9 -167 13 -7 5 -13 19
-13 33 l0 24 170 0 170 0 6 26 c12 46 -2 124 -25 147 -20 20 -33 22 -159 24
-75 1 -154 -3 -175 -9z m254 -68 c11 -6 19 -21 19 -35 l0 -25 -130 0 c-117 0
-130 2 -130 18 0 24 12 39 35 45 38 9 186 7 206 -3z"/>
<path d="M16265 1811 c-84 -21 -98 -53 -93 -221 l3 -115 40 0 40 0 5 122 c3
67 9 125 13 130 5 4 59 10 120 13 l112 5 0 35 0 35 -105 2 c-58 1 -118 -2
-135 -6z"/>
<path d="M16557 1814 c-4 -4 -7 -81 -7 -170 l0 -164 24 -6 c61 -15 61 -15 61
171 l0 170 -35 3 c-20 2 -39 0 -43 -4z"/>
<path d="M5367 1193 c-4 -3 -7 -109 -7 -235 l0 -229 43 3 42 3 3 224 c2 173
-1 226 -10 233 -16 9 -62 11 -71 1z"/>
<path d="M14381 1186 c-8 -9 -11 -79 -9 -232 l3 -219 45 0 45 0 3 68 3 68 77
-3 76 -3 54 -67 c52 -65 56 -68 98 -68 24 0 44 3 44 6 0 9 -97 139 -114 154
-12 9 -5 24 45 90 32 43 59 81 59 84 0 4 -21 6 -47 6 -47 -1 -49 -2 -93 -63
l-45 -62 -78 -3 -77 -3 0 119 c0 78 -4 122 -12 130 -16 16 -63 15 -77 -2z"/>
<path d="M15807 1194 c-4 -4 -7 -25 -7 -46 l0 -38 46 0 45 0 -3 43 c-3 40 -4
42 -38 45 -20 2 -39 0 -43 -4z"/>
<path d="M3207 1163 c-4 -3 -7 -78 -7 -165 0 -255 6 -262 250 -266 182 -3 212
4 254 61 19 25 21 46 24 191 4 181 1 190 -60 184 l-33 -3 -5 -156 c-4 -111 -9
-161 -19 -173 -20 -23 -272 -24 -295 0 -13 13 -16 42 -16 163 0 101 -4 151
-12 159 -13 13 -70 17 -81 5z"/>
<path d="M8790 1157 c-17 -8 -59 -74 -132 -207 -59 -107 -108 -201 -108 -207
0 -9 16 -13 48 -13 46 0 48 1 71 45 l24 46 146 -3 146 -3 23 -42 c23 -42 25
-43 73 -43 27 0 49 2 49 6 0 12 -212 390 -228 406 -24 23 -82 31 -112 15z
m101 -169 c24 -46 46 -86 47 -90 2 -5 -44 -8 -102 -8 l-106 0 37 68 c49 91 62
112 71 112 5 0 28 -37 53 -82z"/>
<path d="M10577 1164 c-4 -4 -7 -27 -7 -51 0 -43 0 -43 -35 -43 -33 0 -35 -2
-35 -35 0 -33 2 -35 35 -35 l35 0 0 -90 c0 -151 28 -184 151 -178 64 3 64 3
64 33 0 29 -2 30 -54 37 -29 3 -58 12 -62 20 -5 7 -9 50 -9 96 l0 82 60 0 60
0 0 35 0 35 -59 0 -60 0 -3 48 c-3 46 -4 47 -38 50 -20 2 -39 0 -43 -4z"/>
<path d="M12800 1158 l-25 -14 -3 -207 -2 -207 45 0 45 0 0 170 c0 94 4 170 8
170 5 0 40 -68 78 -152 37 -84 76 -160 86 -170 25 -25 109 -25 131 0 9 10 34
56 56 103 21 47 54 117 73 155 l33 69 5 -170 5 -170 45 0 45 0 3 195 c3 236 3
235 -87 235 -47 0 -65 -4 -80 -20 -10 -11 -49 -91 -86 -178 -37 -87 -72 -156
-77 -155 -5 2 -40 75 -79 163 -38 88 -76 166 -83 174 -20 19 -105 25 -136 9z"/>
<path d="M3780 1060 c0 -16 169 -304 186 -317 14 -10 14 -15 -2 -42 -14 -23
-26 -31 -53 -33 -34 -3 -36 -5 -36 -38 0 -33 2 -35 37 -38 80 -7 92 6 226 241
67 118 122 220 122 226 0 6 -19 11 -43 11 l-43 0 -74 -130 c-40 -71 -77 -127
-81 -124 -4 2 -40 61 -79 129 l-71 125 -45 0 c-24 0 -44 -5 -44 -10z"/>
<path d="M4323 1055 c-44 -19 -56 -48 -57 -135 -2 -150 27 -170 245 -170 l141
0 -7 -32 c-4 -18 -9 -35 -12 -38 -3 -3 -82 -7 -176 -10 l-172 -5 0 -35 0 -35
180 0 c272 0 270 -2 270 239 0 180 -5 199 -60 222 -47 19 -307 19 -352 -1z
m309 -73 c7 -7 14 -45 16 -87 l4 -75 -127 0 c-69 0 -135 5 -146 10 -16 9 -19
22 -19 81 0 63 2 71 23 79 33 14 233 8 249 -8z"/>
<path d="M4812 930 c3 -137 3 -140 31 -167 l27 -28 176 0 176 0 29 33 29 32 0
135 0 135 -45 0 -45 0 0 -120 c0 -108 -2 -120 -19 -130 -11 -5 -69 -10 -130
-10 -144 0 -141 -3 -141 146 l0 114 -46 0 -46 0 4 -140z"/>
<path d="M5522 1033 l3 -38 154 -3 c158 -3 181 -8 181 -43 0 -18 -10 -19 -150
-19 -147 0 -152 -1 -175 -25 -20 -19 -25 -34 -25 -75 0 -41 5 -56 25 -75 24
-25 26 -25 209 -25 173 0 186 1 196 19 16 30 13 215 -5 257 -23 55 -57 64
-250 64 l-166 0 3 -37z m338 -198 l0 -36 -127 3 -128 3 -3 33 -3 32 130 0 131
0 0 -35z"/>
<path d="M6074 1060 c-12 -4 -31 -21 -43 -36 -19 -24 -21 -39 -21 -160 l0
-134 45 0 45 0 0 120 c0 140 0 140 104 140 l66 0 0 -130 0 -130 45 0 45 0 0
130 0 130 74 0 c48 0 77 -4 84 -13 6 -7 13 -64 14 -128 l3 -114 43 -3 42 -3 0
130 c0 213 2 211 -307 210 -120 0 -228 -4 -239 -9z"/>
<path d="M6697 1063 c-12 -11 -8 -50 6 -62 8 -6 75 -12 168 -13 l154 -3 3 -27
3 -28 -140 0 c-77 0 -151 -4 -165 -10 -54 -20 -59 -150 -6 -177 18 -9 77 -12
210 -10 l185 2 3 125 c4 204 -2 210 -251 210 -90 0 -167 -3 -170 -7z m333
-228 l0 -36 -127 3 c-114 3 -128 5 -131 21 -9 44 1 47 133 47 l125 0 0 -35z"/>
<path d="M7370 1060 c0 -13 157 -288 178 -312 11 -13 30 -18 67 -18 37 0 56 5
67 18 21 24 178 299 178 312 0 5 -19 10 -43 10 l-43 0 -67 -118 c-101 -179
-82 -177 -171 -19 l-77 137 -45 0 c-24 0 -44 -5 -44 -10z"/>
<path d="M7922 1055 c-49 -21 -65 -69 -60 -176 7 -139 24 -149 263 -149 l166
0 -3 38 -3 37 -154 3 c-158 3 -181 8 -181 43 0 18 10 19 164 19 194 0 190 -2
184 96 -6 100 -14 104 -197 104 -104 -1 -155 -5 -179 -15z m286 -92 l3 -33
-130 0 c-123 0 -131 1 -131 19 0 44 25 52 144 49 l111 -3 3 -32z"/>
<path d="M9230 1052 c-49 -24 -61 -68 -58 -206 l3 -111 43 -3 42 -3 1 103 c2
161 -6 152 129 158 l115 5 3 38 3 37 -123 0 c-97 0 -130 -4 -158 -18z"/>
<path d="M9552 1033 l3 -38 154 -3 c158 -3 181 -8 181 -43 0 -16 -13 -18 -155
-21 -186 -4 -190 -6 -190 -99 0 -96 6 -99 230 -99 147 0 185 3 195 15 8 10 11
52 8 139 -3 122 -4 126 -31 153 l-27 28 -186 3 -185 3 3 -38z m338 -198 l0
-36 -127 3 c-114 3 -128 5 -131 21 -9 44 1 47 133 47 l125 0 0 -35z"/>
<path d="M10065 1045 c-19 -18 -25 -35 -25 -69 0 -92 14 -100 195 -106 138 -5
140 -5 143 -29 2 -13 -2 -28 -10 -32 -7 -5 -84 -9 -170 -9 l-158 0 0 -35 0
-35 180 0 c115 0 188 4 205 12 50 22 59 133 14 174 -18 16 -41 19 -165 23
l-145 3 3 27 3 26 158 3 157 3 0 34 0 35 -180 0 c-179 0 -181 0 -205 -25z"/>
<path d="M10840 900 l0 -171 43 3 42 3 0 165 0 165 -42 3 -43 3 0 -171z"/>
<path d="M11074 1063 c-12 -2 -32 -15 -45 -29 -22 -24 -24 -34 -27 -165 l-4
-139 46 0 46 0 0 111 c0 61 5 119 10 130 10 17 22 19 114 19 112 0 131 8 124
52 -3 22 -6 23 -123 24 -66 1 -130 0 -141 -3z"/>
<path d="M11454 1063 c-12 -2 -32 -15 -45 -29 -22 -24 -24 -34 -27 -165 l-4
-139 46 0 46 0 0 114 c0 142 3 146 100 146 l69 0 3 -127 3 -128 43 -3 42 -3 0
130 0 131 73 0 c39 0 77 -4 84 -8 8 -5 13 -47 15 -127 l3 -120 43 -3 42 -3 0
136 c0 79 -5 145 -11 157 -22 41 -65 48 -291 47 -117 -1 -223 -4 -234 -6z"/>
<path d="M12067 1063 c-12 -11 -8 -50 6 -62 8 -6 75 -12 168 -13 l154 -3 3
-27 3 -28 -140 0 c-77 0 -151 -4 -165 -10 -54 -20 -59 -150 -6 -177 18 -9 77
-12 210 -10 l185 2 3 125 c4 204 -2 210 -251 210 -90 0 -167 -3 -170 -7z m333
-228 l0 -36 -127 3 c-114 3 -128 5 -131 21 -9 44 1 47 133 47 l125 0 0 -35z"/>
<path d="M13552 1055 c-49 -21 -65 -69 -60 -176 7 -139 24 -149 263 -149 l166
0 -3 38 -3 37 -154 3 c-158 3 -181 8 -181 43 0 18 10 19 164 19 194 0 190 -2
184 96 -6 100 -14 104 -197 104 -104 -1 -155 -5 -179 -15z m286 -92 l3 -33
-130 0 c-123 0 -131 1 -131 19 0 44 25 52 144 49 l111 -3 3 -32z"/>
<path d="M14050 1052 c-49 -24 -61 -68 -58 -206 l3 -111 43 -3 42 -3 1 103 c2
161 -6 152 129 158 l115 5 3 38 3 37 -123 0 c-97 0 -130 -4 -158 -18z"/>
<path d="M14902 1055 c-49 -21 -65 -69 -60 -176 7 -139 24 -149 263 -149 l166
0 -3 38 -3 37 -154 3 c-158 3 -181 8 -181 43 0 18 10 19 164 19 194 0 190 -2
184 96 -6 100 -14 104 -197 104 -104 -1 -155 -5 -179 -15z m286 -92 l3 -33
-130 0 c-123 0 -131 1 -131 19 0 44 25 52 144 49 l111 -3 3 -32z"/>
<path d="M15334 1056 c-3 -8 -4 -23 -2 -33 3 -16 18 -18 156 -21 83 -1 152 -6
152 -11 0 -5 -64 -37 -142 -71 -79 -34 -149 -67 -155 -72 -16 -13 -17 -90 -1
-106 8 -8 67 -12 200 -12 l188 0 0 35 0 35 -151 0 c-110 0 -150 3 -147 12 2 6
64 38 138 70 73 32 139 63 147 70 9 7 13 28 11 62 l-3 51 -193 3 c-161 2 -193
0 -198 -12z"/>
<path d="M15800 900 l0 -170 45 0 45 0 0 170 0 170 -45 0 -45 0 0 -170z"/>
<path d="M10216 702 c-3 -5 -8 -39 -12 -76 l-7 -67 34 3 c32 3 34 5 47 62 7
33 11 65 8 73 -6 14 -62 18 -70 5z"/>
</g>
</svg>
